PathFileType	4	(X/Y/Z)	C:\Users\Basilio\Documents\Thesis Gigler\squatting_fais\c3dfiles\058\SJ_pre1\markers_experimental.trc
DataRate	CameraRate	NumFrames	NumMarkers	Units	OrigDataRate	OrigDataStartFrame	OrigNumFrames
200.000000	200.000000	4	61	mm	200.000000	1179	1573
Frame#	Time	FHD			LBHD			RBHD			C7			T10			CLAV			LSHO			LUUPA			LMUPA			LDUPA			LLEP			LMEP			LRAD			LUL			LRFIN			RSHO			RUPA1			RMUPA			RDUPA			RLEP			RMEP			RRAD			RUL			RUFIN			LASI			RASI			USACR			LSACR			RSACR			LTHI1			LTHI2			LTHI3			LTHI4			LLFC			LMFC			LTIB1			LTIB2			LTIB3			LTIB4			LLMAL			LMMAL			LHEE			LMT1			LMT2			LMT5			RTHI			RTHI2			RTHI3			RTHI4			RLFC			RMFC			RTIB1			RTIB2			RTIB3			RTIB4			RLMAL			RMMAL			RHEE			RMT1			RMT2			RMT5			
		X1	Y1	Z1	X2	Y2	Z2	X3	Y3	Z3	X4	Y4	Z4	X5	Y5	Z5	X6	Y6	Z6	X7	Y7	Z7	X8	Y8	Z8	X9	Y9	Z9	X10	Y10	Z10	X11	Y11	Z11	X12	Y12	Z12	X13	Y13	Z13	X14	Y14	Z14	X15	Y15	Z15	X16	Y16	Z16	X17	Y17	Z17	X18	Y18	Z18	X19	Y19	Z19	X20	Y20	Z20	X21	Y21	Z21	X22	Y22	Z22	X23	Y23	Z23	X24	Y24	Z24	X25	Y25	Z25	X26	Y26	Z26	X27	Y27	Z27	X28	Y28	Z28	X29	Y29	Z29	X30	Y30	Z30	X31	Y31	Z31	X32	Y32	Z32	X33	Y33	Z33	X34	Y34	Z34	X35	Y35	Z35	X36	Y36	Z36	X37	Y37	Z37	X38	Y38	Z38	X39	Y39	Z39	X40	Y40	Z40	X41	Y41	Z41	X42	Y42	Z42	X43	Y43	Z43	X44	Y44	Z44	X45	Y45	Z45	X46	Y46	Z46	X47	Y47	Z47	X48	Y48	Z48	X49	Y49	Z49	X50	Y50	Z50	X51	Y51	Z51	X52	Y52	Z52	X53	Y53	Z53	X54	Y54	Z54	X55	Y55	Z55	X56	Y56	Z56	X57	Y57	Z57	X58	Y58	Z58	X59	Y59	Z59	X60	Y60	Z60	X61	Y61	Z61	

1180	5.895	-80.31162261962892	1850.755249023438	-732.8533325195314	-233.6986846923829	1787.322998046875	-803.7739257812502	-79.72686767578126	1872.354736328125	-874.9693603515627	-242.5989074707032	1663.617553710938	-840.8120727539065	-281.4620361328126	1360.18798828125	-845.9765625000002	-80.15991210937501	1615.920043945313	-821.7075195312502	-92.7974090576172	1689.105346679688	-978.7143554687502	-231.8681030273438	1647.016235351563	-1146.133056640625	-207.4469146728516	1613.876953125	-1173.812866210938	-260.9266662597657	1610.365844726563	-1200.334228515625	-299.7777404785157	1552.632202148438	-1257.786865234375	-355.7637939453126	1534.911376953125	-1206.276123046875	-249.2694244384766	1320.5830078125	-1108.915893554688	-224.8250274658204	1285.532958984375	-1176.794189453125	-179.7082824707032	1290.732788085938	-1073.896850585938	-133.7125549316407	1684.264526367188	-665.3062744140626	-290.1478576660157	1594.450439453125	-522.2121582031251	-259.5804138183594	1559.532104492188	-504.1796264648439	-310.7086791992188	1542.624877929688	-478.4486389160157	-346.0934753417969	1486.223510742188	-446.3815002441407	-397.7203674316407	1456.682006835938	-513.9528198242189	-256.2065124511719	1261.294555664063	-575.4581298828126	-234.4873657226563	1233.461303710938	-502.6488037109376	-179.243148803711	1233.61865234375	-590.5710449218751	-132.6302795410157	1144.767211914063	-975.2415161132815	-131.0100250244141	1133.0849609375	-741.2153930664064	-305.4392395019532	1237.752319335938	-841.7213134765627	-315.6257324218751	1208.051513671875	-871.1981201171877	-312.6744079589844	1204.380737304688	-814.0466918945315	-214.3401184082032	862.6693115234377	-1090.175048828125	-189.5092315673828	782.0881958007815	-1100.563110351563	-141.9462432861328	780.1588134765627	-1086.930908203125	-219.7865905761719	730.8621215820314	-1095.580810546875	-226.5805206298829	627.2067871093751	-1094.737548828125	-163.2940826416016	606.8206176757814	-984.0895996093752	-183.8551635742188	483.7707519531251	-1094.804931640625	-260.3843688964844	460.6006469726564	-1124.01611328125	-218.2422790527344	445.5498962402345	-1120.926635742188	-221.4512176513672	361.9558715820313	-1104.248901367188	-312.8256530761719	169.7398986816407	-1100.23974609375	-251.0921936035157	181.9052276611328	-1030.082397460938	-348.7471923828126	129.8273468017578	-1026.965454101563	-140.6695556640625	128.03173828125	-1109.449462890625	-157.7003326416016	127.0204772949219	-1154.209716796875	-221.2187500000001	96.27871704101565	-1176.820190429688	-252.1126556396485	925.5677490234377	-657.8178710937501	-215.2342834472657	871.8906250000002	-643.1807861328126	-182.0703277587891	871.3132324218752	-646.3681640625001	-243.1195526123047	791.731140136719	-649.4454345703126	-237.6567840576172	613.2523803710939	-647.3404541015626	-179.7770233154297	582.0374755859376	-768.0388183593752	-179.6650543212891	394.4709472656251	-684.5043945312501	-234.5949401855469	330.9105834960938	-618.0056762695314	-194.6040191650391	318.7450866699219	-639.3136596679689	-196.8307342529297	268.7583923339844	-667.5041503906251	-269.1549987792969	157.8408355712891	-626.0292968750001	-214.0005645751954	175.210693359375	-700.8048095703126	-313.3431396484376	117.94091796875	-701.9041748046876	-105.3172683715821	101.3715057373047	-642.7064208984376	-117.1444320678711	101.9196395874024	-591.3859863281251	-176.2317199707032	65.08259582519533	-561.6541137695314	
1181	5.9	-77.47161102294923	1837.15185546875	-731.9595336914064	-230.9945831298829	1774.5712890625	-803.1403808593752	-76.65407562255861	1858.833251953125	-874.2624511718752	-241.3087615966797	1651.41357421875	-840.2723388671877	-282.8155212402344	1348.259033203125	-845.5898437500002	-79.2408905029297	1601.930419921875	-821.5958251953127	-90.8800506591797	1675.425048828125	-978.4476318359377	-230.6272735595704	1635.01025390625	-1145.683837890625	-206.3471374511719	1601.583129882813	-1173.536865234375	-260.4085998535157	1598.542358398438	-1199.909790039063	-300.1505737304688	1541.132934570313	-1257.20849609375	-356.2570495605469	1524.704345703125	-1205.490478515625	-252.7924194335938	1309.723266601563	-1106.40673828125	-228.6022033691407	1273.576171875	-1173.861206054688	-183.6338195800782	1280.056762695313	-1071.620971679688	-131.3663024902344	1670.766845703125	-665.0403442382814	-287.7370910644532	1583.494506835938	-520.4929809570314	-256.8727111816407	1548.213623046875	-503.1022949218751	-308.5087890625001	1531.887939453125	-476.8466186523439	-344.7432250976563	1475.913940429688	-445.0985412597657	-398.022430419922	1447.993286132813	-512.1197509765626	-259.3627319335938	1251.763061523438	-578.2045288085939	-236.1886749267579	1223.061401367188	-506.3596496582032	-182.5603179931641	1224.870849609375	-594.8098754882814	-134.4845886230469	1132.364135742188	-974.7746582031252	-133.0190887451172	1120.375732421875	-741.1395874023439	-307.0050659179688	1226.010498046875	-841.402526855469	-317.4652099609376	1196.472412109375	-870.711853027344	-314.7535095214844	1192.30615234375	-813.373229980469	-212.8309173583985	850.8594970703127	-1091.249267578125	-186.9581756591797	770.578308105469	-1102.171142578125	-139.3868713378907	769.1795043945315	-1088.11376953125	-216.7907714843751	718.7683105468751	-1097.680786132813	-223.2042846679688	614.8657226562501	-1097.10400390625	-160.4145812988282	594.5454711914064	-986.5729980468752	-180.7667236328125	471.4170227050782	-1096.5673828125	-257.1653137207032	448.5311889648439	-1125.64453125	-216.1928405761719	433.1049194335939	-1121.822998046875	-219.2115783691407	350.3237609863282	-1104.447265625	-312.4295349121094	157.8270874023438	-1099.828002929688	-250.9237213134766	170.8789215087891	-1029.835327148438	-348.7789916992188	119.0112380981446	-1026.849365234375	-139.952377319336	116.9525146484375	-1107.6650390625	-155.7780456542969	115.0638809204102	-1151.782348632813	-220.0471649169922	83.51534271240236	-1175.439697265625	-252.1573181152344	912.5006103515627	-656.3554077148439	-214.4778747558594	859.476501464844	-641.8087158203126	-181.0715942382813	859.5862426757815	-645.2486572265626	-241.1851043701172	778.9493408203127	-647.8424682617189	-233.8524169921876	600.4684448242189	-645.6108398437501	-175.6808013916016	569.9487915039064	-766.5667114257814	-176.2220611572266	382.6098022460938	-683.5104370117189	-231.9134216308594	318.8161315917969	-617.2644042968751	-191.3743133544922	306.6159057617188	-638.6196289062501	-193.6730346679688	257.0219726562501	-666.9534301757814	-267.2765197753907	146.0823669433594	-626.2407226562501	-211.3325805664063	163.2429504394532	-700.4404296875001	-311.0592651367188	107.2353439331055	-702.5830078125001	-104.1227722167969	87.53100585937501	-641.7980346679689	-116.1400222778321	88.24950408935548	-590.6379394531251	-175.7041778564453	51.9213218688965	-561.4430541992189	
1182	5.905	-74.87976074218751	1823.535400390625	-731.3203125000001	-228.8233947753907	1761.749633789063	-802.4978637695315	-73.67612457275392	1845.067016601563	-873.543640136719	-239.8205871582032	1639.124267578125	-839.9353637695315	-283.8832702636719	1336.5654296875	-845.0610351562502	-78.24378204345705	1587.968994140625	-821.3355712890627	-89.06782531738283	1661.166625976563	-978.2951660156252	-229.2965698242188	1622.43798828125	-1145.495483398438	-205.404769897461	1589.025512695313	-1173.29931640625	-260.0573425292969	1586.488403320313	-1199.375	-300.2840270996094	1529.23583984375	-1256.54296875	-356.7514038085938	1514.250854492188	-1204.666748046875	-256.3821411132813	1298.267333984375	-1103.909423828125	-232.4307556152344	1261.300170898438	-1171.088745117188	-187.0933532714844	1268.906616210938	-1069.154296875	-128.7786102294922	1657.130981445313	-664.5172729492189	-284.7675781250001	1572.279907226563	-519.6690673828126	-254.5937194824219	1536.2919921875	-502.2503967285157	-306.2348022460938	1520.719482421875	-475.5687866210939	-343.4869079589844	1465.31689453125	-443.8717041015626	-398.1383056640626	1439.017211914063	-510.4821166992189	-262.4152832031251	1242.267333984375	-581.2374267578126	-238.2515258789063	1212.388427734375	-510.0356750488282	-185.9820404052735	1215.681762695313	-599.2632446289064	-136.5784301757813	1119.814331054688	-974.159606933594	-135.5669250488282	1107.534790039063	-740.7188110351564	-309.0294494628907	1213.703369140625	-840.7746582031252	-319.5206909179688	1184.0615234375	-870.3410644531252	-316.6060791015626	1180.049438476563	-812.9963989257815	-211.7322692871094	838.823425292969	-1092.484985351563	-184.4677429199219	758.8708496093751	-1103.778442382813	-136.6195220947266	758.1072387695314	-1089.49853515625	-213.3067779541016	706.6109008789064	-1099.717651367188	-219.5203399658204	602.5933837890626	-1099.226196289063	-157.4318084716797	582.1781005859376	-989.153015136719	-178.0580596923828	458.9863586425782	-1098.083984375	-255.0264587402344	436.513641357422	-1127.003051757813	-213.7274627685547	420.4358825683595	-1123.095825195313	-217.0114135742188	337.9903869628907	-1105.398071289063	-311.5698242187501	146.2080841064453	-1100.12451171875	-250.4324035644532	159.6955108642578	-1029.708251953125	-348.5399475097657	108.3008575439453	-1027.035522460938	-139.024658203125	104.8479995727539	-1106.007568359375	-154.3392639160157	102.3366470336914	-1150.004028320313	-218.6193847656251	70.85021972656251	-1173.813720703125	-252.2660217285157	899.4392089843752	-654.7764282226564	-213.4167633056641	846.7138671875002	-640.6439819335939	-180.2222137451172	847.6739501953127	-644.4194946289064	-238.9455566406251	765.8771362304689	-646.0944824218751	-229.9360656738282	587.6586914062501	-644.2941894531251	-171.0989379882813	557.7388305664064	-764.8931274414064	-172.6031951904297	370.5855407714844	-682.5991210937501	-229.0516204833985	306.5089416503907	-616.7727661132814	-188.3102111816407	294.1064147949219	-637.8245239257814	-191.2433013916016	244.4731750488282	-666.3846435546876	-265.6353759765626	134.1604919433594	-626.2193603515626	-208.8563842773438	151.1587982177735	-700.1044921875001	-309.0903930664063	96.5481872558594	-703.1445312500001	-102.2461090087891	73.09512329101564	-640.8756103515626	-115.2128143310547	73.96721649169923	-590.2564086914064	-175.2776184082032	38.13705825805665	-561.8084106445314	
1183	5.91	-71.97857666015626	1809.147216796875	-730.8949584960939	-226.0743103027344	1748.669311523438	-802.0250244140627	-70.34807586669923	1830.898193359375	-872.964294433594	-238.0962524414063	1626.754028320313	-839.6467895507815	-285.2413635253907	1324.646118164063	-844.8201293945315	-77.29603576660158	1573.599731445313	-821.2351684570315	-87.63612365722658	1646.923828125	-978.0078735351565	-227.7349090576172	1609.775634765625	-1145.267944335938	-204.8962707519532	1575.557983398438	-1172.87548828125	-259.4130249023438	1573.940795898438	-1198.96142578125	-300.9201049804688	1517.148315429688	-1255.786499023438	-357.4201965332032	1503.271850585938	-1203.7646484375	-260.0052490234376	1286.716918945313	-1101.496459960938	-236.6122741699219	1249.010620117188	-1168.3203125	-190.1982879638672	1257.496704101563	-1067.015258789063	-126.7867965698242	1642.94775390625	-664.2523803710939	-281.6490783691407	1560.444458007813	-517.5559082031251	-252.6148834228516	1523.954833984375	-500.7850646972657	-304.0872802734376	1508.916870117188	-474.4766235351564	-342.3142700195313	1454.251953125	-442.4464416503907	-398.2869567871095	1429.65087890625	-508.9765625000001	-265.7685852050782	1232.372924804688	-584.3473510742189	-240.352035522461	1201.361450195313	-513.8231201171876	-189.8274078369141	1206.065551757813	-603.8225097656251	-138.4920959472657	1106.884643554688	-973.6463623046877	-137.6696929931641	1094.383666992188	-740.2597656250001	-310.8132324218751	1201.207153320313	-840.4608154296877	-321.5207214355469	1171.747680664063	-869.8137207031252	-319.2308349609376	1167.391357421875	-812.3423461914065	-210.1347351074219	826.7088623046877	-1093.377563476563	-182.0853729248047	747.0667114257814	-1105.298828125	-134.2983551025391	746.6621093750001	-1090.766845703125	-210.0030364990235	694.4388427734376	-1101.66845703125	-215.9959259033204	590.1763916015626	-1101.382934570313	-154.001937866211	569.9570312500001	-991.6412353515627	-175.3822937011719	446.5694580078126	-1099.431640625	-251.9232635498047	424.2636718750001	-1128.52490234375	-211.0398712158204	408.1016235351564	-1124.342163085938	-215.1898193359376	325.5009155273438	-1106.552001953125	-311.4134521484376	134.0202941894532	-1099.954223632813	-249.7111358642579	148.5735473632813	-1029.674560546875	-348.4256591796876	97.8116149902344	-1027.246826171875	-137.6448059082032	92.43064880371095	-1104.10498046875	-153.4901123046875	88.59056854248048	-1148.569213867188	-217.1101531982422	57.47121810913087	-1171.95263671875	-252.5965881347657	885.8305664062502	-652.9028930664064	-212.4343414306641	834.232116699219	-639.1060180664064	-179.3316345214844	835.031433105469	-643.6304321289064	-236.6928405761719	752.4794311523439	-644.3439941406251	-226.0084075927735	575.0716552734376	-642.8391113281251	-165.7788696289063	545.8872680664064	-763.1409301757814	-168.9611053466797	357.6981811523438	-681.5105590820314	-226.0721130371094	294.3139343261719	-616.5717163085939	-185.2109375	281.8528137207032	-637.2227172851564	-188.6541290283203	232.1342468261719	-665.9866333007814	-263.2508544921876	122.1638259887696	-626.1981811523439	-206.2998046875001	139.2129821777344	-700.0614013671876	-307.1716613769532	85.93190765380861	-703.4561767578126	-100.8355789184571	58.6739845275879	-641.2705078125001	-113.8445281982422	59.52627182006837	-590.5251464843751	-176.2013092041016	26.75073814392091	-561.2374267578126	
